<?xml version="1.0" encoding="UTF-8"?>
<svg id="Layer_2" data-name="Layer 2" xmlns="http://www.w3.org/2000/svg" viewBox="0 0 305.41 65.27">
  <defs>
    <style>
      .cls-1 {
        fill: #25d3c2;
      }

      .cls-2 {
        fill: #2b2457;
      }
    </style>
  </defs>
  <g id="Layer_1-2" data-name="Layer 1">
    <g>
      <g>
        <path class="cls-1" d="m31.74,12.76l29.44,50.99c.54.94,1.55,1.52,2.64,1.52h8.12c2.35,0,3.81-2.54,2.64-4.57L40.42,1.52c-1.17-2.03-4.11-2.03-5.28,0l-3.39,5.88c-.96,1.66-.95,3.69,0,5.35Z"/>
        <path class="cls-2" d="m33.65,30.22L13.52,63.55c-.64,1.06-1.79,1.71-3.03,1.71H3.55c-2.75,0-4.45-3-3.04-5.36L24.05,20.46c1.39-2.32,4.76-2.3,6.11.04l3.53,6.1c.65,1.12.63,2.5-.04,3.61Z"/>
        <path class="cls-2" d="m23.46,65.27h6.63c1.29,0,2.48-.67,3.15-1.77l9.35-15.36c1.02-1.67,1.06-3.75.12-5.46l-2.78-5.07c-1.37-2.5-4.93-2.56-6.39-.11l-13.24,22.21c-1.46,2.46.31,5.57,3.16,5.57Z"/>
        <path class="cls-2" d="m52.49,65.27h-5.65c-1.2,0-2.33-.6-2.99-1.6l-1.2-1.8c-1.46-2.18-1.5-5.02-.11-7.25l1.81-2.91c.98-1.57,3.27-1.55,4.22.05l5.92,10.01c.91,1.54-.2,3.5-1.99,3.5Z"/>
      </g>
      <g>
        <path class="cls-2" d="m101.14,63.06c-1.93-.98-3.79-2.67-5.57-5.09-1.83-2.46-2.74-5.93-2.74-10.41s.92-7.91,2.77-10.31c1.85-2.36,3.7-3.99,5.57-4.9,1.89-.89,3.97-1.34,6.24-1.34,4.48,0,8.22,1.92,11.24,5.76v-12.11c0-.68.22-1.24.67-1.67.45-.43,1.01-.65,1.69-.65s1.24.22,1.67.65c.43.44.65.99.65,1.67v37.48c0,.68-.22,1.24-.65,1.69-.44.45-.99.67-1.67.67s-1.24-.22-1.69-.65-.67-1-.67-1.7v-3.92l-.03-.03c-2.67,4.2-6.41,6.3-11.2,6.3-2.31,0-4.4-.48-6.27-1.43Zm12.41-27.28c-2.99-1.57-6.25-1.64-9.77-.22-1.7.68-3.09,2.18-4.17,4.49-1.1,2.29-1.66,4.9-1.66,7.83,0,4.35,1.08,7.61,3.25,9.77s4.7,3.25,7.61,3.25,5.29-.97,7.1-2.9c1.82-1.95,2.74-4.09,2.74-6.43v-7.83c0-1.63-.46-3.16-1.37-4.57-.91-1.41-2.15-2.54-3.72-3.39Z"/>
        <path class="cls-2" d="m147.05,34.98h-6.78v20.79c0,1.83.4,3.2,1.21,4.12.81.92,2.02,1.37,3.63,1.35.91.02,1.72-.14,2.42-.48.68-.34,1.12-.51,1.34-.51.51,0,.83.23.95.7.25,1-.01,1.7-.8,2.1-1.7.93-3.67,1.4-5.92,1.4s-4.06-.69-5.44-2.07c-1.4-1.38-2.1-3.5-2.1-6.37v-21.04h-4.2c-.66.04-1.13-.22-1.4-.78-.28-.56-.28-1.12,0-1.69.28-.56.74-.82,1.4-.78h4.2v-6.75c0-.7.22-1.27.67-1.7.45-.43,1.02-.65,1.72-.65s1.24.22,1.67.65c.43.44.65,1,.65,1.7v6.75h6.78c.47,0,.85.15,1.16.45.31.3.46.69.46,1.18s-.15.88-.46,1.18c-.31.3-.7.45-1.16.45Z"/>
        <path class="cls-2" d="m180.66,61.18c-3.67,2.21-7.16,3.31-10.47,3.31s-6.13-.7-8.53-2.1c-2.38-1.4-4.19-3.34-5.43-5.81-1.24-2.47-1.86-5.34-1.86-8.61s.62-6.21,1.86-8.75,3.07-4.55,5.49-6.02c2.46-1.46,5.12-2.2,7.99-2.2,5.37,0,9.45,1.56,12.26,4.68,2.78,3.16,4.17,7.09,4.17,11.78,0,6.96-1.83,11.53-5.48,13.72Zm-10.35-.03c1.51,0,3.66-.59,6.46-1.78,2.78-1.19,4.17-5.09,4.17-11.71,0-4.52-1.06-7.87-3.18-10.06-2.12-2.16-4.62-3.25-7.48-3.25-4.22,0-7.07,1.49-8.53,4.46-1.46,2.99-2.2,5.94-2.2,8.85,0,4.71,1.05,8.14,3.15,10.28,2.1,2.14,4.64,3.22,7.61,3.22Z"/>
        <path class="cls-2" d="m201.64,63.44l-10.19-29.13c-.3-.83-.16-1.64.41-2.45.38-.53.92-.8,1.62-.8,1.34,0,2.2.56,2.58,1.69l7.77,23.3,9.04-24.03c.23-.68.71-1.02,1.43-1.02s1.21.33,1.46.99l9.14,24.1,7.99-23.75c.32-.89.88-1.34,1.69-1.34s1.37.2,1.69.6c.47.62.58,1.28.35,2.01l-10.44,29.76c-.3.74-.82,1.11-1.56,1.11s-1.28-.36-1.56-1.08l-9.45-24.03-8.94,24.06c-.28.7-.79,1.05-1.53,1.05s-1.24-.35-1.5-1.05Z"/>
        <path class="cls-2" d="m245.63,39.44c-.55.68-1.25.78-2.1.29-.62-.4-.74-.98-.38-1.72,1.12-2.16,2.79-3.87,5-5.12,2.21-1.25,4.54-1.88,7-1.88,4.75,0,8.05,1.14,9.9,3.41,1.85,2.29,2.77,5.6,2.77,9.93v17.76c0,.7-.22,1.27-.67,1.72s-1.01.67-1.69.67-1.28-.23-1.73-.68c-.46-.46-.68-1.02-.68-1.7v-3.72h-.03c-2.74,4.07-6.29,6.11-10.66,6.11s-7.32-1.1-8.85-3.31c-1.55-2.19-2.32-4.07-2.32-5.67s.16-2.89.48-3.88c.3-.95.74-1.8,1.34-2.55.51-.68,1.69-1.69,3.53-3.02,1.8-1.27,5.2-1.91,10.19-1.91,2.02,0,4.13.15,6.33.45v-1.4c0-3.95-1.03-6.33-3.09-7.16-2.1-.81-3.89-1.21-5.38-1.21s-3.13.43-4.74,1.27c-1.66.87-3.06,1.98-4.2,3.34Zm11.68,7.96c-7.34,0-11.01,2.36-11.01,7.07,0,1.4.52,2.84,1.56,4.33,1.02,1.49,3.01,2.23,5.98,2.23,1.48,0,2.83-.35,4.04-1.07,1.21-.71,2.41-1.72,3.6-3.04,1.04-1.17,1.56-2.92,1.56-5.25v-3.76c-2.23-.34-4.14-.51-5.73-.51Z"/>
        <path class="cls-2" d="m278,52.46V17.7c0-.7.22-1.27.67-1.7.45-.43,1.02-.65,1.72-.65s1.24.22,1.67.65c.43.44.65,1,.65,1.7v35.37c0,2.29.21,4.17.64,5.63.42,1.46,1.54,2.34,3.34,2.61,1.34.23,2.01.67,2.01,1.31,0,.7-.14,1.19-.41,1.46-.3.3-.65.42-1.05.38-3.4-.15-5.78-1.12-7.16-2.93-1.38-1.76-2.07-4.79-2.07-9.07Z"/>
        <path class="cls-2" d="m294.71,52.46V17.7c0-.7.22-1.27.67-1.7.45-.43,1.02-.65,1.72-.65s1.24.22,1.67.65c.43.44.65,1,.65,1.7v35.37c0,2.29.21,4.17.64,5.63.42,1.46,1.54,2.34,3.34,2.61,1.34.23,2.01.67,2.01,1.31,0,.7-.14,1.19-.41,1.46-.3.3-.65.42-1.05.38-3.4-.15-5.78-1.12-7.16-2.93-1.38-1.76-2.07-4.79-2.07-9.07Z"/>
      </g>
    </g>
  </g>
</svg>